<svg width="320.606" height="65.675" viewBox="0 0 320.606 65.675" xmlns="http://www.w3.org/2000/svg"><g id="svgGroup" stroke-linecap="round" fill-rule="evenodd" font-size="9pt" stroke="#09583e" stroke-width="0.1mm" fill="#ffffff" style="stroke:#09583e;stroke-width:0.1mm;fill:#ffffff"><path d="M 39.99 56.495 L 39.551 51.905 A 11.776 11.776 0 0 0 45.277 48.595 A 16.484 16.484 0 0 0 47.119 46.339 A 7.26 7.26 0 0 0 47.539 45.615 Q 47.928 44.837 47.948 44.211 A 2.118 2.118 0 0 0 47.949 44.141 A 1.828 1.828 0 0 0 47.886 43.639 Q 47.667 42.872 46.68 42.872 L 46.533 42.872 Q 46.485 42.921 46.338 42.921 A 14.116 14.116 0 0 1 43.675 46.821 Q 40.764 49.766 36.286 50.065 A 15.486 15.486 0 0 1 35.254 50.098 A 14.893 14.893 0 0 1 32.056 49.771 A 11.013 11.013 0 0 1 28.589 48.389 Q 25.83 46.68 23.535 42.481 L 23.242 42.481 A 2.256 2.256 0 0 0 22.749 42.53 Q 22.055 42.687 21.945 43.34 A 1.592 1.592 0 0 0 21.924 43.604 A 2.523 2.523 0 0 0 22.028 44.298 Q 22.115 44.603 22.275 44.931 A 5.609 5.609 0 0 0 22.51 45.362 A 16.036 16.036 0 0 0 25.253 48.823 A 14.064 14.064 0 0 0 27.393 50.489 Q 29.688 52.052 32.227 52.345 L 31.836 61.573 A 21.165 21.165 0 0 1 25.659 64.332 A 20.503 20.503 0 0 1 23.363 64.782 Q 20.94 65.13 17.562 65.178 A 78.308 78.308 0 0 1 16.431 65.186 A 26.105 26.105 0 0 1 10.441 64.525 A 21.353 21.353 0 0 1 5.762 62.843 Q 0 59.962 0 54.835 A 66.19 66.19 0 0 1 0.089 51.775 Q 0.446 44.352 2.223 26.404 A 1858.466 1858.466 0 0 1 2.539 23.243 Q 3.906 10.108 4.737 4.884 A 15.974 15.974 0 0 1 10.39 1.697 Q 14.29 0.391 19.58 0.391 Q 25.421 0.391 29.623 2.161 A 17.358 17.358 0 0 1 31.397 3.028 L 34.082 12.013 L 32.373 19.19 A 5.773 5.773 0 0 0 32.198 20.163 A 4.969 4.969 0 0 0 32.178 20.606 A 2.141 2.141 0 0 0 32.292 21.337 Q 32.651 22.327 34.131 22.364 L 38.77 3.077 Q 40.772 2.003 43.994 1.197 A 26.809 26.809 0 0 1 48.252 0.505 A 33.072 33.072 0 0 1 51.026 0.391 A 33.641 33.641 0 0 1 54.744 0.583 Q 58.688 1.023 61.086 2.476 A 9.019 9.019 0 0 1 61.597 2.808 Q 65.039 5.225 65.674 10.938 A 79.892 79.892 0 0 1 65.756 11.564 Q 65.894 12.635 66.113 14.503 A 2954.164 2954.164 0 0 1 67.624 27.718 Q 70.162 50.427 70.504 57.614 A 40.417 40.417 0 0 1 70.557 59.473 A 17.479 17.479 0 0 1 62.304 64.279 Q 59.515 65.045 56.184 65.164 A 34.903 34.903 0 0 1 54.932 65.186 A 33.189 33.189 0 0 1 51.032 64.972 Q 47.052 64.5 44.434 62.989 Q 40.332 60.694 39.99 56.495 Z M 165.088 46.534 A 3.027 3.027 0 0 0 165.745 46.343 Q 166.636 45.959 166.695 45.034 A 2.109 2.109 0 0 0 166.699 44.898 A 5.099 5.099 0 0 0 166.539 43.67 Q 166.401 43.115 166.145 42.514 A 10.552 10.552 0 0 0 165.845 41.871 A 10.14 10.14 0 0 0 164.546 39.931 A 13.294 13.294 0 0 0 163.33 38.673 A 14.646 14.646 0 0 0 156.989 35.387 Q 154.751 34.825 152.113 34.772 A 27.557 27.557 0 0 0 151.563 34.766 A 19.414 19.414 0 0 0 146.344 35.453 A 17.698 17.698 0 0 0 144.727 35.987 A 12.07 12.07 0 0 1 140.172 31.914 A 15.356 15.356 0 0 1 139.356 30.567 A 16.605 16.605 0 0 1 137.354 22.559 A 21.343 21.343 0 0 1 138.901 14.281 Q 140.933 9.401 145.632 5.98 A 25.549 25.549 0 0 1 146.729 5.225 A 31.513 31.513 0 0 1 157.621 0.863 A 44.424 44.424 0 0 1 166.602 0.001 A 68.554 68.554 0 0 1 172.802 0.265 Q 177.643 0.706 181.397 1.881 A 40.181 40.181 0 0 1 185.914 3.581 Q 188.191 4.608 190.032 5.844 A 22.406 22.406 0 0 1 191.211 6.69 A 20.183 20.183 0 0 1 192.334 13.38 A 22.432 22.432 0 0 1 192.057 16.982 A 17.86 17.86 0 0 1 191.406 19.679 A 13.158 13.158 0 0 1 190.436 21.942 A 9.646 9.646 0 0 1 188.721 24.22 A 8.302 8.302 0 0 0 187.612 23.548 Q 186.43 22.939 184.592 22.318 A 47.177 47.177 0 0 0 182.715 21.729 Q 178.713 20.56 175.374 20.468 A 20.547 20.547 0 0 0 174.805 20.46 A 46.059 46.059 0 0 0 173.359 20.481 Q 171.221 20.548 170.249 20.832 A 3.192 3.192 0 0 0 170.044 20.899 A 2.841 2.841 0 0 0 169.535 21.141 Q 169.267 21.306 169.103 21.514 A 1.183 1.183 0 0 0 168.848 22.266 Q 168.848 22.706 168.994 23.097 Q 170.156 22.798 171.769 22.702 A 27.428 27.428 0 0 1 173.389 22.657 A 33.039 33.039 0 0 1 180.036 23.289 Q 184.201 24.144 187.46 26.158 A 19.853 19.853 0 0 1 188.916 27.149 A 17.329 17.329 0 0 1 195.497 37.935 A 26.916 26.916 0 0 1 195.996 43.263 A 19.193 19.193 0 0 1 189.727 57.759 A 25.224 25.224 0 0 1 188.33 58.985 A 28.587 28.587 0 0 1 177.721 64.253 Q 172.475 65.675 166.016 65.675 Q 159.416 65.675 154.317 64.835 A 46.61 46.61 0 0 1 152.637 64.527 A 40.094 40.094 0 0 1 141.686 60.544 A 44.682 44.682 0 0 1 141.602 60.499 A 22.357 22.357 0 0 1 139.098 55.809 A 17.061 17.061 0 0 1 137.94 49.683 A 13.166 13.166 0 0 1 138.766 44.947 A 11.915 11.915 0 0 1 141.699 40.577 A 12.811 12.811 0 0 1 150.781 36.965 A 16.582 16.582 0 0 1 150.952 36.964 A 22.013 22.013 0 0 1 154.754 37.273 Q 156.878 37.646 158.601 38.467 A 12.043 12.043 0 0 1 159.937 39.21 A 11.138 11.138 0 0 1 163.285 42.633 Q 164.362 44.312 165.088 46.534 Z M 223.926 46.534 A 3.027 3.027 0 0 0 224.583 46.343 Q 225.473 45.959 225.533 45.034 A 2.109 2.109 0 0 0 225.537 44.898 A 5.099 5.099 0 0 0 225.377 43.67 Q 225.239 43.115 224.983 42.514 A 10.552 10.552 0 0 0 224.683 41.871 A 10.14 10.14 0 0 0 223.384 39.931 A 13.294 13.294 0 0 0 222.168 38.673 A 14.646 14.646 0 0 0 215.827 35.387 Q 213.589 34.825 210.951 34.772 A 27.557 27.557 0 0 0 210.401 34.766 A 19.414 19.414 0 0 0 205.182 35.453 A 17.698 17.698 0 0 0 203.565 35.987 A 12.07 12.07 0 0 1 199.01 31.914 A 15.356 15.356 0 0 1 198.194 30.567 A 16.605 16.605 0 0 1 196.192 22.559 A 21.343 21.343 0 0 1 197.739 14.281 Q 199.771 9.401 204.47 5.98 A 25.549 25.549 0 0 1 205.567 5.225 A 31.513 31.513 0 0 1 216.459 0.863 A 44.424 44.424 0 0 1 225.44 0.001 A 68.554 68.554 0 0 1 231.64 0.265 Q 236.481 0.706 240.235 1.881 A 40.181 40.181 0 0 1 244.752 3.581 Q 247.029 4.608 248.87 5.844 A 22.406 22.406 0 0 1 250.049 6.69 A 20.183 20.183 0 0 1 251.172 13.38 A 22.432 22.432 0 0 1 250.895 16.982 A 17.86 17.86 0 0 1 250.244 19.679 A 13.158 13.158 0 0 1 249.274 21.942 A 9.646 9.646 0 0 1 247.559 24.22 A 8.302 8.302 0 0 0 246.45 23.548 Q 245.268 22.939 243.43 22.318 A 47.177 47.177 0 0 0 241.553 21.729 Q 237.551 20.56 234.212 20.468 A 20.547 20.547 0 0 0 233.643 20.46 A 46.059 46.059 0 0 0 232.197 20.481 Q 230.059 20.548 229.087 20.832 A 3.192 3.192 0 0 0 228.882 20.899 A 2.841 2.841 0 0 0 228.373 21.141 Q 228.104 21.306 227.941 21.514 A 1.183 1.183 0 0 0 227.686 22.266 Q 227.686 22.706 227.832 23.097 Q 228.994 22.798 230.607 22.702 A 27.428 27.428 0 0 1 232.227 22.657 A 33.039 33.039 0 0 1 238.873 23.289 Q 243.039 24.144 246.298 26.158 A 19.853 19.853 0 0 1 247.754 27.149 A 17.329 17.329 0 0 1 254.335 37.935 A 26.916 26.916 0 0 1 254.834 43.263 A 19.193 19.193 0 0 1 248.565 57.759 A 25.224 25.224 0 0 1 247.168 58.985 A 28.587 28.587 0 0 1 236.559 64.253 Q 231.313 65.675 224.854 65.675 Q 218.254 65.675 213.155 64.835 A 46.61 46.61 0 0 1 211.475 64.527 A 40.094 40.094 0 0 1 200.524 60.544 A 44.682 44.682 0 0 1 200.44 60.499 A 22.357 22.357 0 0 1 197.936 55.809 A 17.061 17.061 0 0 1 196.778 49.683 A 13.166 13.166 0 0 1 197.604 44.947 A 11.915 11.915 0 0 1 200.537 40.577 A 12.811 12.811 0 0 1 209.619 36.965 A 16.582 16.582 0 0 1 209.79 36.964 A 22.013 22.013 0 0 1 213.592 37.273 Q 215.715 37.646 217.439 38.467 A 12.043 12.043 0 0 1 218.775 39.21 A 11.138 11.138 0 0 1 222.123 42.633 Q 223.2 44.312 223.926 46.534 Z M 72.803 52.198 L 83.203 5.714 A 28.718 28.718 0 0 1 88.04 3.267 A 38.416 38.416 0 0 1 92.529 1.807 A 44.441 44.441 0 0 1 103.809 0.391 Q 112.207 0.391 118.164 3.223 A 18.392 18.392 0 0 1 122.163 5.747 A 12.556 12.556 0 0 1 126.416 12.55 L 137.549 58.595 Q 132.471 65.186 120.996 65.186 A 25.77 25.77 0 0 1 116.756 64.856 Q 113.863 64.373 111.572 63.184 A 10.018 10.018 0 0 1 109.301 61.606 A 7.207 7.207 0 0 1 107.08 57.472 L 106.006 51.514 A 16.102 16.102 0 0 0 111.67 50.391 A 12.329 12.329 0 0 0 112.599 49.985 Q 114.14 49.227 114.366 48.423 A 1.023 1.023 0 0 0 114.404 48.145 A 1.509 1.509 0 0 0 113.91 46.994 A 1.934 1.934 0 0 0 113.77 46.876 A 11.879 11.879 0 0 1 111.438 48.151 A 16.105 16.105 0 0 1 109.229 48.878 A 23.414 23.414 0 0 1 106.641 49.39 A 17.606 17.606 0 0 1 104.248 49.561 A 26.065 26.065 0 0 1 100.424 49.299 Q 98.423 49.002 96.802 48.367 A 11.359 11.359 0 0 1 94.092 46.876 A 3.35 3.35 0 0 0 93.824 47.314 Q 93.604 47.752 93.604 48.145 A 1.605 1.605 0 0 0 94.056 49.234 Q 94.555 49.792 95.607 50.254 A 10.125 10.125 0 0 0 96.265 50.513 Q 98.926 51.466 102.735 51.71 A 120.779 120.779 0 0 0 102.976 54.134 Q 103.476 58.65 104.034 59.614 A 1.049 1.049 0 0 0 104.102 59.718 Q 103.372 61.139 100.619 62.575 A 26.272 26.272 0 0 1 98.975 63.355 A 21.879 21.879 0 0 1 92.847 64.989 A 27.592 27.592 0 0 1 89.502 65.186 A 27.197 27.197 0 0 1 83.776 64.612 A 20.214 20.214 0 0 1 77.539 62.183 A 13.007 13.007 0 0 1 75.021 60.248 A 7.963 7.963 0 0 1 72.559 54.444 A 11.335 11.335 0 0 1 72.606 53.389 Q 72.666 52.747 72.803 52.198 Z M 255.86 52.198 L 266.26 5.714 A 28.718 28.718 0 0 1 271.096 3.267 A 38.416 38.416 0 0 1 275.586 1.807 A 44.441 44.441 0 0 1 286.865 0.391 Q 295.264 0.391 301.221 3.223 A 18.392 18.392 0 0 1 305.219 5.747 A 12.556 12.556 0 0 1 309.473 12.55 L 320.606 58.595 Q 315.528 65.186 304.053 65.186 A 25.77 25.77 0 0 1 299.812 64.856 Q 296.919 64.373 294.629 63.184 A 10.018 10.018 0 0 1 292.358 61.606 A 7.207 7.207 0 0 1 290.137 57.472 L 289.063 51.514 A 16.102 16.102 0 0 0 294.727 50.391 A 12.329 12.329 0 0 0 295.656 49.985 Q 297.197 49.227 297.422 48.423 A 1.023 1.023 0 0 0 297.461 48.145 A 1.509 1.509 0 0 0 296.966 46.994 A 1.934 1.934 0 0 0 296.826 46.876 A 11.879 11.879 0 0 1 294.494 48.151 A 16.105 16.105 0 0 1 292.285 48.878 A 23.414 23.414 0 0 1 289.697 49.39 A 17.606 17.606 0 0 1 287.305 49.561 A 26.065 26.065 0 0 1 283.481 49.299 Q 281.479 49.002 279.858 48.367 A 11.359 11.359 0 0 1 277.149 46.876 A 3.35 3.35 0 0 0 276.881 47.314 Q 276.66 47.752 276.66 48.145 A 1.605 1.605 0 0 0 277.112 49.234 Q 277.612 49.792 278.664 50.254 A 10.125 10.125 0 0 0 279.321 50.513 Q 281.983 51.466 285.791 51.71 A 120.779 120.779 0 0 0 286.033 54.134 Q 286.533 58.65 287.09 59.614 A 1.049 1.049 0 0 0 287.158 59.718 Q 286.429 61.139 283.675 62.575 A 26.272 26.272 0 0 1 282.031 63.355 A 21.879 21.879 0 0 1 275.904 64.989 A 27.592 27.592 0 0 1 272.559 65.186 A 27.197 27.197 0 0 1 266.832 64.612 A 20.214 20.214 0 0 1 260.596 62.183 A 13.007 13.007 0 0 1 258.078 60.248 A 7.963 7.963 0 0 1 255.615 54.444 A 11.335 11.335 0 0 1 255.662 53.389 Q 255.722 52.747 255.86 52.198 Z M 101.904 22.364 L 103.76 32.227 Q 104.151 32.618 104.981 32.618 A 3.365 3.365 0 0 0 105.649 32.555 A 2.429 2.429 0 0 0 106.397 32.276 Q 105.265 25.658 104.793 23.854 A 7.118 7.118 0 0 0 104.688 23.487 Q 104.402 22.733 103.964 22.381 A 1.375 1.375 0 0 0 103.076 22.071 A 2.057 2.057 0 0 0 102.683 22.112 Q 102.487 22.151 102.267 22.225 A 4.867 4.867 0 0 0 101.904 22.364 Z M 284.961 22.364 L 286.817 32.227 Q 287.207 32.618 288.037 32.618 A 3.365 3.365 0 0 0 288.706 32.555 A 2.429 2.429 0 0 0 289.453 32.276 Q 288.321 25.658 287.849 23.854 A 7.118 7.118 0 0 0 287.744 23.487 Q 287.458 22.733 287.02 22.381 A 1.375 1.375 0 0 0 286.133 22.071 A 2.057 2.057 0 0 0 285.739 22.112 Q 285.543 22.151 285.323 22.225 A 4.867 4.867 0 0 0 284.961 22.364 Z" vector-effect="non-scaling-stroke"/></g></svg>