<?xml version="1.0" encoding="UTF-8"?>
<svg version="1.1" xmlns="http://www.w3.org/2000/svg" width="531" height="435">
<path d="M0 0 C1.35335881 -0.00274864 2.7067174 -0.00560597 4.06007576 -0.00856781 C10.44490758 -0.02218813 16.82972707 -0.03187484 23.21457237 -0.0357697 C29.71920454 -0.03976572 36.22368886 -0.05191229 42.72827148 -0.078125 C210.72953588 -0.74033846 210.72953588 -0.74033846 262.1328125 49.59375 C265.20018787 52.64596536 268.23122257 55.73171733 271.25390625 58.828125 C273.50873689 61.11509034 273.50873689 61.11509034 275.453125 62.56640625 C293.26234439 76.66682946 299.29480958 101.77319974 302.04234314 123.22181702 C303.2277069 133.79419128 303.04001783 144.4545612 303.00390625 155.078125 C303.0017511 156.21340637 302.99959595 157.34868774 302.99737549 158.51837158 C302.94729557 174.93155729 302.64534698 191.01437142 299.69140625 207.203125 C299.38541504 208.92716553 299.38541504 208.92716553 299.07324219 210.68603516 C294.60979511 235.25448514 287.72104113 258.34849321 277.69140625 281.203125 C277.35496094 281.97382324 277.01851563 282.74452148 276.671875 283.53857422 C264.17724005 311.86928782 246.00707684 336.86787076 224.69140625 359.203125 C223.85996094 360.07582031 223.02851563 360.94851563 222.171875 361.84765625 C216.86630646 367.2869084 211.31066225 372.2362265 205.32714844 376.91796875 C204.16889201 377.82797798 203.01644681 378.74540629 201.86816406 379.66796875 C186.10070777 392.33246544 169.05522843 402.73717688 150.69140625 411.203125 C149.91249023 411.5650293 149.13357422 411.92693359 148.33105469 412.29980469 C127.24024734 421.99777294 105.5117313 428.1260161 82.69140625 432.203125 C81.39565674 432.4508667 81.39565674 432.4508667 80.07373047 432.70361328 C50.48677721 438.198252 16.21882673 437.8690288 -13.30859375 432.203125 C-14.64494873 431.96964355 -14.64494873 431.96964355 -16.00830078 431.73144531 C-42.51886603 427.05393406 -67.53507251 417.67968672 -91.30859375 405.203125 C-92.01886719 404.83477539 -92.72914063 404.46642578 -93.4609375 404.08691406 C-112.65724484 394.02749943 -129.67075934 380.07514043 -145.30859375 365.203125 C-145.87513672 364.66526367 -146.44167969 364.12740234 -147.02539062 363.57324219 C-155.075817 355.87418801 -162.34684705 347.89553831 -168.99511719 338.95654297 C-170.28843794 337.23003189 -171.61108842 335.53013125 -172.94140625 333.83203125 C-201.57721335 296.73600218 -217.6365685 251.01916312 -225.30859375 205.203125 C-225.47375488 204.24535156 -225.63891602 203.28757813 -225.80908203 202.30078125 C-228.5281832 185.72185621 -228.61894573 169.08507326 -228.68359375 152.328125 C-228.69153961 151.24356018 -228.69948547 150.15899536 -228.70767212 149.04156494 C-228.86977875 120.21818844 -226.30521583 86.35634067 -205.30859375 64.203125 C-202.40502812 61.41528119 -199.38927189 58.79260316 -196.30859375 56.203125 C-192.04831518 52.56430741 -187.98530841 48.88942164 -184.12109375 44.828125 C-178.76594276 39.42712512 -172.69625073 35.2648317 -166.30859375 31.203125 C-164.72111328 30.1821875 -164.72111328 30.1821875 -163.1015625 29.140625 C-116.09738419 0.59241706 -53.32583941 0.07714459 0 0 Z M-63.62109375 11.953125 C-64.75641541 12.03162689 -65.89173706 12.11012878 -67.0614624 12.19100952 C-87.45613039 13.62902637 -106.45882027 16.76601299 -125.8137207 23.41210938 C-128.16194812 24.21713073 -130.51673237 25.00025298 -132.87304688 25.78125 C-134.40015879 26.29563213 -135.92686814 26.81121132 -137.453125 27.328125 C-138.14171097 27.55741699 -138.83029694 27.78670898 -139.53974915 28.02294922 C-144.14386748 29.61721151 -148.13808173 31.68017672 -152.30859375 34.203125 C-152.30859375 34.533125 -152.30859375 34.863125 -152.30859375 35.203125 C-143.35669784 35.37300811 -134.4820416 34.83341357 -125.55859375 34.203125 C-123.49341681 34.05876124 -121.42818183 33.9155534 -119.36273193 33.77514648 C-117.49977693 33.64832169 -115.63708534 33.51764455 -113.77441406 33.38671875 C-107.22012781 33.03952072 -102.16075586 33.38393057 -95.87109375 35.328125 C-88.47502151 37.4139288 -82.5420017 37.11649914 -75.02734375 35.78125 C-67.93924483 34.67931866 -62.20962965 35.27336687 -55.41015625 37.546875 C-47.34297796 39.25378426 -39.75503084 37.89020592 -31.80859375 36.203125 C-14.41103744 32.83282553 0.66500151 33.81223165 17.65063477 38.77563477 C22.94737374 40.25909139 27.89578371 40.4728502 33.37890625 40.390625 C34.62124023 40.3896582 34.62124023 40.3896582 35.88867188 40.38867188 C39.98084809 40.35918462 43.6821937 40.05895034 47.69140625 39.203125 C58.59371462 38.43871028 68.72596627 39.61118827 79.40771484 41.7800293 C88.72801117 43.62031648 97.21843613 44.0416048 106.37890625 41.328125 C107.57902344 40.98007812 108.77914063 40.63203125 110.015625 40.2734375 C111.88829245 39.72815495 113.7608949 39.18262029 115.6315918 38.63061523 C120.53778317 37.27778519 125.05299402 36.9272269 130.12890625 37.015625 C130.82822266 37.01626953 131.52753906 37.01691406 132.24804688 37.01757812 C135.88326127 37.04762122 139.42059076 37.26152198 143.02734375 37.71875 C148.32415105 38.35119615 153.55276997 38.22243969 158.87890625 38.140625 C174.08068293 38.01117473 189.25320914 38.61735056 204.44140625 39.203125 C205.68417328 39.25105194 206.92694031 39.29897888 208.20736694 39.34835815 C215.3689983 39.62630712 222.53033705 39.91105687 229.69140625 40.203125 C229.69140625 39.543125 229.69140625 38.883125 229.69140625 38.203125 C219.38144601 33.71165717 208.87376179 30.32968527 198.10766602 27.10449219 C192.54329226 25.42690515 187.11710453 23.69065958 181.75390625 21.453125 C176.77178474 19.45624229 171.79902695 18.15039739 166.56640625 17.015625 C165.869104 16.86061523 165.17180176 16.70560547 164.45336914 16.54589844 C149.00996998 13.40973199 133.50345409 12.96845176 117.8013916 13.16650391 C101.97573726 13.356678 86.23596803 13.23974454 70.44140625 12.203125 C58.79579902 11.43954472 47.24967404 11.00677658 35.56933594 11.18945312 C29.03208559 11.27692191 22.55272162 11.08034384 16.02734375 10.7265625 C6.45453523 10.21202952 -3.09683852 9.92002225 -12.68359375 9.890625 C-13.52401215 9.88800659 -14.36443054 9.88538818 -15.23031616 9.88269043 C-31.40509308 9.87745036 -47.49244926 10.78905182 -63.62109375 11.953125 Z M-192.30859375 55.203125 C-220.21112801 87.22871415 -223.53114572 134.47740337 -221.0859375 174.88232422 C-216.68922704 230.43723794 -196.80639628 285.8478811 -161.30859375 329.203125 C-160.87724121 329.73067383 -160.44588867 330.25822266 -160.00146484 330.80175781 C-136.39137491 359.54072818 -109.15022975 382.60447657 -76.30859375 400.203125 C-75.38022705 400.70924316 -75.38022705 400.70924316 -74.43310547 401.22558594 C-20.14679191 430.64322876 45.74514883 435.2138686 104.546875 418.109375 C136.87744754 408.27773805 166.48645362 392.50133395 192.69140625 371.203125 C193.284375 370.72584961 193.87734375 370.24857422 194.48828125 369.75683594 C208.87151282 358.10285495 222.45719806 344.93420658 233.69140625 330.203125 C234.67814115 328.96621275 235.66655679 327.73064024 236.65625 326.49609375 C280.36746403 271.39886666 301.77986734 199.0610749 294.86645508 129.03320312 C292.32390873 106.99437713 286.13252647 86.32250812 274.69140625 67.203125 C274.19382812 66.3575 273.69625 65.511875 273.18359375 64.640625 C266.35254992 54.47987639 253.67643173 50.43344779 242.17578125 47.98046875 C224.64181326 44.69583578 206.90156346 44.85594471 189.17578125 45.984375 C188.49399559 46.02725143 187.81220993 46.07012787 187.1097641 46.11430359 C170.77085504 47.15406035 154.49665021 48.78889251 138.21331787 50.46881104 C106.52762124 53.73672038 75.07134852 56.57319224 43.18652344 56.51879883 C40.29085636 56.51419574 37.39561237 56.52101269 34.5 56.53930664 C-0.97052043 56.76021497 -35.98986509 53.18542664 -71.21594238 49.34692383 C-77.84478441 48.62485061 -84.47425184 47.90872053 -91.10438919 47.19864273 C-93.36432966 46.95529452 -95.62374658 46.70749132 -97.88314819 46.459198 C-146.49500591 41.07598873 -146.49500591 41.07598873 -192.30859375 55.203125 Z " fill="#406d52" transform="translate(228.30859375,-0.203125)"/>
</svg>
